<?xml version="1.0" encoding="utf-8"?>
<svg version="1.1"
	 xmlns="http://www.w3.org/2000/svg" xmlns:xlink="http://www.w3.org/1999/xlink" xmlns:a="http://ns.adobe.com/AdobeSVGViewerExtensions/3.0/"
	 x="0px" y="0px" width="150px" height="130px" viewBox="-15.438 -43.474 150 130" enable-background="new -15.438 -43.474 150 130"
	 xml:space="preserve">
<defs>
</defs>
<path fill="#66757F" d="M14.314,16.703l0.096,0.016l7.749-16.381h7.186l-3.504,23.406h-5.434l2.251-15.063l-0.097-0.016
	l-7.412,15.079h-3.648L8.655,8.89H8.559L6.341,23.744H0.906L4.411,0.338h7.122L14.314,16.703z"/>
<path fill="#66757F" d="M35.325,23.744h-5.418l3.505-23.406h5.418L35.325,23.744z"/>
<path fill="#66757F" d="M58.539,15.851l0.033,0.097c-0.376,2.776-1.427,4.825-3.151,6.149c-1.727,1.323-4.029,1.985-6.913,1.985
	c-2.787,0-4.951-0.896-6.495-2.685c-1.543-1.79-2.101-4.095-1.671-6.913l0.739-4.888C41.521,6.64,42.707,4.3,44.642,2.58
	C46.576,0.859,48.947,0,51.756,0c2.86,0,5.022,0.696,6.486,2.09c1.463,1.393,1.979,3.397,1.551,6.013l-0.048,0.096H54.44
	c0.214-1.489,0.069-2.532-0.435-3.126c-0.504-0.596-1.463-0.893-2.878-0.893c-1.168,0-2.17,0.496-3.006,1.486
	c-0.836,0.992-1.372,2.291-1.607,3.898l-0.739,4.92c-0.258,1.693-0.1,3.02,0.474,3.979c0.573,0.96,1.536,1.439,2.887,1.439
	c1.188,0,2.121-0.316,2.797-0.949c0.675-0.632,1.119-1.666,1.334-3.103H58.539z"/>
<path fill="#66757F" d="M79.921,23.744h-5.418l1.399-9.421h-8.666l-1.398,9.421h-5.434l3.504-23.406h5.435l-1.479,9.806h8.664
	l1.479-9.806h5.418L79.921,23.744z"/>
<path fill="#66757F" d="M98.826,13.729h-8.247l-0.868,5.836h9.887l-0.627,4.18H83.65l3.505-23.406h15.336l-0.627,4.18h-9.902
	l-0.756,5.031h8.247L98.826,13.729z"/>
<path fill="#66757F" d="M108.086,19.564h10.048l-0.627,4.18h-15.481l3.504-23.406h5.435L108.086,19.564z"/>
<path fill="#66757F" d="M8.052,36.004H1.995v5.276h7.089v1.56H0V28.094h8.973v1.57H1.995v4.77h6.057V36.004z"/>
<path fill="#66757F" d="M11.444,42.84V28.094h4.639c1.925,0,3.472,0.593,4.644,1.777c1.172,1.186,1.758,2.716,1.758,4.593v2.016
	c0,1.884-0.586,3.415-1.758,4.593c-1.172,1.179-2.719,1.768-4.644,1.768H11.444z M13.439,29.664V41.28h2.644
	c1.363,0,2.438-0.449,3.226-1.347c0.787-0.898,1.18-2.049,1.18-3.454v-2.035c0-1.392-0.393-2.535-1.18-3.434
	s-1.862-1.347-3.226-1.347H13.439z"/>
<path fill="#66757F" d="M27.7,42.84h-2.006V28.094H27.7V42.84z"/>
<path fill="#66757F" d="M41.96,40.855c-0.351,0.547-0.961,1.05-1.828,1.509s-1.994,0.688-3.378,0.688
	c-1.701,0-3.109-0.563-4.224-1.691c-1.113-1.128-1.67-2.586-1.67-4.375v-3.039c0-1.789,0.536-3.247,1.609-4.375
	c1.074-1.127,2.457-1.691,4.153-1.691c1.64,0,2.937,0.438,3.889,1.312s1.414,1.987,1.388,3.338l-0.021,0.061h-1.914
	c0-0.898-0.29-1.646-0.871-2.243s-1.404-0.896-2.471-0.896c-1.128,0-2.036,0.422-2.725,1.266c-0.689,0.845-1.033,1.914-1.033,3.211
	v3.059c0,1.31,0.364,2.389,1.094,3.235c0.729,0.848,1.661,1.271,2.795,1.271c0.871,0,1.562-0.113,2.071-0.34
	c0.51-0.226,0.89-0.494,1.14-0.805v-3.322h-3.342v-1.56h5.337V40.855z"/>
<path fill="#66757F" d="M56.555,42.84h-1.996v-6.512h-7.16v6.512h-1.995V28.094h1.995v6.664h7.16v-6.664h1.996V42.84z"/>
<path fill="#66757F" d="M71.26,36.783c0,1.803-0.559,3.299-1.676,4.487c-1.118,1.188-2.567,1.782-4.351,1.782
	c-1.722,0-3.121-0.594-4.198-1.782s-1.614-2.685-1.614-4.487V34.16c0-1.796,0.537-3.291,1.614-4.486s2.477-1.793,4.198-1.793
	c1.783,0,3.232,0.596,4.351,1.788c1.117,1.191,1.676,2.688,1.676,4.491V36.783z M69.265,34.141c0-1.352-0.364-2.458-1.094-3.322
	s-1.708-1.297-2.938-1.297c-1.161,0-2.088,0.433-2.779,1.297c-0.692,0.864-1.038,1.971-1.038,3.322v2.643
	c0,1.364,0.346,2.479,1.038,3.343c0.691,0.864,1.618,1.296,2.779,1.296c1.236,0,2.217-0.43,2.942-1.291
	c0.727-0.86,1.089-1.977,1.089-3.348V34.141z"/>
<path fill="#66757F" d="M82.351,36.317h-6.22v6.522h-1.994V28.094h9.247v1.57h-7.253v5.084h6.22V36.317z"/>
<path fill="#66757F" d="M93.795,36.317h-6.219v6.522h-1.995V28.094h9.247v1.57h-7.252v5.084h6.219V36.317z"/>
<path fill="#66757F" d="M105.077,36.004h-6.057v5.276h7.09v1.56h-9.085V28.094h8.973v1.57h-6.978v4.77h6.057V36.004z"/>
<path fill="#66757F" d="M110.466,36.449v6.391h-1.996V28.104h5.045c1.613,0,2.845,0.358,3.696,1.074
	c0.851,0.716,1.275,1.756,1.275,3.119c0,0.756-0.197,1.415-0.592,1.976c-0.396,0.561-0.972,1.006-1.727,1.336
	c0.81,0.264,1.392,0.69,1.746,1.281c0.355,0.592,0.532,1.321,0.532,2.193v1.387c0,0.46,0.051,0.871,0.152,1.236
	c0.101,0.364,0.276,0.661,0.526,0.891v0.243h-2.056c-0.264-0.229-0.433-0.566-0.506-1.013c-0.075-0.445-0.112-0.904-0.112-1.377
	v-1.348c0-0.796-0.232-1.438-0.699-1.924c-0.466-0.486-1.09-0.729-1.873-0.729H110.466z M110.466,34.88h2.846
	c1.127,0,1.939-0.215,2.436-0.644s0.744-1.082,0.744-1.96c0-0.83-0.241-1.474-0.724-1.929c-0.483-0.456-1.233-0.684-2.253-0.684
	h-3.049V34.88z"/>
</svg>
